<svg xmlns="http://www.w3.org/2000/svg" xmlns:xlink="http://www.w3.org/1999/xlink" version="1.1" id="Vault" x="0px" y="0px" width="100px" height="100px" viewBox="0 0 100 100" enable-background="new 0 0 100 100" xml:space="preserve">
<g>
	<path d="M82.008,88.469l-5.873-0.184v6.057h-8.81v-5.873H32.271l-0.184,5.873h-8.809v-5.689l-5.873-0.184   c-1.592,0-2.968-0.579-4.129-1.743c-1.165-1.162-1.744-2.538-1.744-4.13V12.12c0-1.589,0.579-2.965,1.744-4.13   c1.161-1.161,2.538-1.743,4.129-1.743h64.603c1.589,0,2.966,0.582,4.13,1.743c1.161,1.165,1.743,2.541,1.743,4.13v70.476   c0,1.592-0.582,2.968-1.743,4.13C84.974,87.89,83.597,88.469,82.008,88.469z M79.071,15.057H20.342v11.562h-2.937v8.993h2.937   V58.92h-2.937v8.993h2.937v11.746h58.729V15.057z M76.135,76.723H23.278v-8.81h2.937V58.92h-2.937V35.612h2.937v-8.993h-2.937   v-8.626h52.856V76.723z M53.836,37.723c-2.266-2.263-5.047-3.396-8.351-3.396s-6.088,1.133-8.351,3.396   c-2.266,2.265-3.396,5.047-3.396,8.351c0,3.303,1.13,6.088,3.396,8.351c2.263,2.266,5.047,3.396,8.351,3.396   s6.085-1.13,8.351-3.396c2.263-2.263,3.396-5.047,3.396-8.351C57.231,42.77,56.099,39.988,53.836,37.723z M48.422,49.744   c-0.857,0.857-1.898,1.285-3.12,1.285c-1.225,0-2.266-0.427-3.12-1.285c-0.857-0.854-1.285-1.896-1.285-3.12   c0-1.222,0.427-2.262,1.285-3.12c0.854-0.855,1.896-1.285,3.12-1.285c1.222,0,2.263,0.43,3.12,1.285   c0.854,0.857,1.285,1.898,1.285,3.12C49.707,47.848,49.276,48.889,48.422,49.744z M71.73,37.08c0-0.734-0.275-1.405-0.826-2.019   c-0.551-0.61-1.256-0.917-2.11-0.917c-0.857,0-1.561,0.307-2.11,0.917c-0.551,0.614-0.826,1.285-0.826,2.019   c0,1.101,0.487,1.958,1.468,2.569v15.417c-0.98,0.613-1.468,1.468-1.468,2.569c0,0.857,0.275,1.56,0.826,2.11   c0.55,0.551,1.253,0.826,2.11,0.826c0.854,0,1.56-0.275,2.11-0.826s0.826-1.253,0.826-2.11c0-1.222-0.551-2.079-1.652-2.569V39.833   C71.18,39.222,71.73,38.305,71.73,37.08z"/>
</g>
</svg>