<svg xmlns="http://www.w3.org/2000/svg" xmlns:xlink="http://www.w3.org/1999/xlink" version="1.1" x="0px" y="0px" viewBox="0 0 100 100" enable-background="new 0 0 100 100" xml:space="preserve" height="100px" width="100px">
<g id="Layer_3">
</g>
<g id="Layer_1">
	<g id="XMLID_33_">
		<g id="XMLID_34_">
			<path d="M5.278,5.966V92.86h91.054V5.966H5.278z M90.178,87.07H11.432V11.757h78.746V87.07z"/>
			<path d="M15.065,15.39v68.047h71.48V15.39H15.065z M44.897,75.013c-14.024,0-25.432-11.408-25.432-25.432     S30.873,24.15,44.897,24.15c14.023,0,25.432,11.408,25.432,25.432S58.92,75.013,44.897,75.013z M79.983,65.376     c0,1.208-0.977,2.184-2.185,2.184c-1.203,0-2.184-0.976-2.184-2.184v-31.59c0-1.203,0.981-2.184,2.184-2.184     c1.208,0,2.185,0.981,2.185,2.184V65.376z"/>
			<path d="M44.897,27.783c-12.021,0-21.798,9.777-21.798,21.798c0,12.021,9.777,21.798,21.798,21.798     c12.021,0,21.798-9.778,21.798-21.798C66.695,37.56,56.918,27.783,44.897,27.783z M60.809,51.779h-4.005     c-0.31,1.712-0.985,3.297-1.944,4.677l2.748,2.748c0.853,0.854,0.853,2.239,0,3.093c-0.409,0.413-0.959,0.64-1.544,0.64     c-0.581,0-1.131-0.227-1.544-0.64l-2.752-2.752c-1.38,0.963-2.97,1.639-4.686,1.948v3.883c0,1.208-0.981,2.184-2.185,2.184     c-1.204,0-2.185-0.976-2.185-2.184v-3.883c-1.716-0.313-3.31-0.99-4.691-1.948l-2.751,2.752c-0.409,0.413-0.959,0.64-1.544,0.64     c-0.582,0-1.131-0.227-1.544-0.64c-0.85-0.854-0.85-2.239,0-3.093l2.752-2.752c-0.959-1.376-1.636-2.965-1.944-4.673h-4.006     c-1.212,0-2.198-0.985-2.198-2.198c0-1.212,0.985-2.198,2.198-2.198h4.006c0.309-1.707,0.985-3.297,1.944-4.673l-2.752-2.752     c-0.413-0.413-0.64-0.963-0.64-1.544c0-0.586,0.227-1.135,0.64-1.548c0.413-0.409,0.962-0.64,1.544-0.64     c0.585,0,1.135,0.232,1.544,0.64l2.751,2.752c1.381-0.958,2.975-1.635,4.691-1.948v-3.883c0-1.203,0.981-2.184,2.185-2.184     c1.204,0,2.185,0.981,2.185,2.184v3.883c1.716,0.309,3.306,0.985,4.686,1.948l2.752-2.752c0.413-0.409,0.963-0.64,1.544-0.64     c0.585,0,1.135,0.232,1.544,0.64c0.413,0.413,0.64,0.963,0.64,1.548c0,0.581-0.227,1.131-0.64,1.544l-2.748,2.747     c0.959,1.381,1.635,2.965,1.944,4.677h4.005c1.212,0,2.198,0.986,2.198,2.198C63.007,50.794,62.022,51.779,60.809,51.779z"/>
			<path d="M53.376,49.581c0,0.599-0.064,1.181-0.182,1.744c-0.013,0.077-0.032,0.15-0.054,0.227     c-0.014,0.077-0.032,0.154-0.055,0.227c-0.195,0.727-0.481,1.412-0.853,2.048c-0.036,0.068-0.077,0.136-0.123,0.2     c-0.036,0.068-0.077,0.132-0.122,0.195c-0.64,0.977-1.471,1.807-2.447,2.448c-0.064,0.041-0.132,0.082-0.196,0.123     c-0.067,0.045-0.136,0.086-0.204,0.123c-0.64,0.372-1.33,0.663-2.057,0.858c-0.077,0.018-0.15,0.041-0.227,0.054     c-0.073,0.018-0.15,0.036-0.227,0.055c-0.559,0.114-1.135,0.177-1.73,0.177c-0.595,0-1.172-0.059-1.731-0.177     c-0.077-0.018-0.154-0.032-0.227-0.055c-0.077-0.014-0.154-0.036-0.227-0.054c-0.731-0.195-1.421-0.486-2.061-0.858     c-0.068-0.036-0.137-0.077-0.205-0.118c-0.063-0.041-0.127-0.082-0.191-0.127c-0.977-0.636-1.812-1.471-2.447-2.448     c-0.046-0.063-0.087-0.127-0.128-0.191c-0.041-0.068-0.082-0.136-0.122-0.204c-0.368-0.636-0.658-1.322-0.849-2.048     c-0.023-0.073-0.042-0.15-0.055-0.227c-0.022-0.077-0.041-0.15-0.054-0.227c-0.118-0.563-0.182-1.144-0.182-1.744     c0-0.6,0.064-1.181,0.182-1.744c0.013-0.077,0.032-0.15,0.054-0.227c0.013-0.077,0.032-0.154,0.055-0.227     c0.191-0.726,0.481-1.412,0.849-2.048c0.041-0.068,0.082-0.136,0.122-0.204c0.041-0.063,0.082-0.127,0.128-0.191     c0.635-0.976,1.471-1.812,2.447-2.448c0.064-0.045,0.128-0.086,0.191-0.127c0.068-0.041,0.137-0.082,0.205-0.118     c0.64-0.373,1.33-0.663,2.061-0.858c0.073-0.018,0.15-0.041,0.227-0.055c0.073-0.023,0.15-0.036,0.227-0.055     c0.559-0.118,1.135-0.177,1.731-0.177c0.595,0,1.172,0.063,1.73,0.177c0.077,0.018,0.154,0.036,0.227,0.055     c0.077,0.014,0.15,0.036,0.227,0.055c0.726,0.195,1.416,0.486,2.057,0.858c0.068,0.036,0.137,0.077,0.204,0.123     c0.064,0.041,0.132,0.082,0.196,0.122c0.976,0.64,1.807,1.471,2.447,2.448c0.045,0.064,0.087,0.127,0.122,0.195     c0.046,0.064,0.087,0.132,0.123,0.2c0.373,0.636,0.658,1.322,0.853,2.048c0.023,0.073,0.041,0.15,0.055,0.227     c0.022,0.077,0.041,0.15,0.054,0.227C53.312,48.401,53.376,48.982,53.376,49.581z"/>
		</g>
	</g>
</g>
<g id="Layer_2">
</g>
<g id="Layer_4">
</g>
<g id="Layer_5">
</g>
</svg>