<svg xmlns="http://www.w3.org/2000/svg" xmlns:xlink="http://www.w3.org/1999/xlink" version="1.1" id="Glyphs_-_Office" x="0px" y="0px" viewBox="0 0 40 40" enable-background="new 0 0 40 40" xml:space="preserve" height="100px" width="100px">
<path id="Drive_Lock" fill-rule="evenodd" clip-rule="evenodd" d="M5,35.5h26v-7H5V35.5z M7,30.5h3v3H7V30.5z M28,20.5  c-4.6,0-8.4-3.5-8.9-8H9l-4,15h26l-2.3-7C28.4,20.5,28.2,20.5,28,20.5z M28,4.5c-3.9,0-7,3.1-7,7c0,3.9,3.1,7,7,7c3.9,0,7-3.1,7-7  C35,7.6,31.9,4.5,28,4.5z M31,14.5h-6v-4h1V9.8c0-1.3,0.8-2.3,2-2.3c1.2,0,2,1,2,2.3v0.7h1V14.5z M28,8.5c-0.6,0-1,0.4-1,1.1l0,0.9  h2l0-0.9C29,8.9,28.6,8.5,28,8.5z"/>
</svg>