<svg xmlns="http://www.w3.org/2000/svg" xmlns:xlink="http://www.w3.org/1999/xlink" version="1.1" id="Layer_1" x="0px" y="0px" viewBox="0 0 100 100" enable-background="new 0 0 100 100" xml:space="preserve" height="100px" width="100px">
<path d="M16.3,83.8h61.9V16.3H16.3V83.8z M35.9,38.8c6.2,0,11.3,5,11.3,11.3s-5,11.3-11.3,11.3c-6.2,0-11.3-5-11.3-11.3  S29.7,38.8,35.9,38.8z M95,38.8V16.3h-5.6v-2.8c0-4.6-3.8-8.4-8.4-8.4H13.4C8.8,5,5,8.8,5,13.4v73.1c0,4.6,3.8,8.4,8.4,8.4h67.5  c4.6,0,8.4-3.8,8.4-8.4v-2.8H95V61.3h-5.6V38.8H95z M83.8,83.8c0,3.1-2.5,5.6-5.6,5.6H16.3c-3.1,0-5.6-2.5-5.6-5.6V16.3  c0-3.1,2.5-5.6,5.6-5.6h61.9c3.1,0,5.6,2.5,5.6,5.6V83.8z M30.3,50c0-3.1,2.5-5.6,5.6-5.6c3.1,0,5.6,2.5,5.6,5.6s-2.5,5.6-5.6,5.6  C32.8,55.6,30.3,53.1,30.3,50z"/>
</svg>