<svg xmlns="http://www.w3.org/2000/svg" xmlns:xlink="http://www.w3.org/1999/xlink" version="1.1" width="96" height="96" viewBox="0 0 96 96">
<path d="M82 92h-68c-7.72 0-14-6.28-14-14v-4c0-7.72 6.28-14 14-14h68c7.72 0 14 6.28 14 14v4c0 7.72-6.28 14-14 14zM14 64c-5.512 0-10 4.488-10 10v4c0 5.512 4.488 10 10 10h68c5.512 0 10-4.488 10-10v-4c0-5.512-4.488-10-10-10h-68z" fill="#000000"/>
	<path d="M79 82c-3.308 0-6-2.692-6-6s2.692-6 6-6 6 2.692 6 6-2.692 6-6 6zM79 74c-1.1 0-2 0.9-2 2s0.9 2 2 2 2-0.9 2-2-0.9-2-2-2z" fill="#000000"/>
	<path d="M3.656 69.944c-0.088 0-0.176-0.008-0.268-0.016-1.092-0.148-1.86-1.156-1.716-2.252l6.78-50.332c1.024-7.608 7.584-13.344 15.26-13.344h48.544c7.696 0 14.252 5.752 15.264 13.376l6.628 50.044c0.144 1.092-0.624 2.1-1.724 2.244-1.112 0.148-2.096-0.624-2.244-1.72l-6.624-50.040c-0.744-5.644-5.6-9.904-11.3-9.904h-48.544c-5.68 0-10.536 4.252-11.296 9.88l-6.78 50.332c-0.136 1.008-0.992 1.732-1.98 1.732z" fill="#000000"/>
	<path d="M62 52h-28c-1.104 0-2-0.9-2-2v-16c0-1.104 0.896-2 2-2h28c1.1 0 2 0.896 2 2v16c0 1.1-0.9 2-2 2zM36 48h24v-12h-24v12z" fill="#000000"/>
	<path d="M58 34c-1.1 0-2-0.896-2-2v-5.66c0-5.24-4.1-6.34-7.544-6.34h-0.916c-3.44 0-7.544 1.1-7.544 6.34v5.66c0 1.104-0.896 2-2 2s-2-0.896-2-2v-5.66c0-6.376 4.424-10.34 11.544-10.34h0.916c7.124 0 11.544 3.964 11.544 10.34v5.66c0 1.104-0.9 2-2 2z" fill="#000000"/>
</svg>